<?xml version="1.0" standalone="no"?><!DOCTYPE svg PUBLIC "-//W3C//DTD SVG 1.1//EN" "http://www.w3.org/Graphics/SVG/1.1/DTD/svg11.dtd"><svg t="1679453758034" class="icon" viewBox="0 0 1024 1024" version="1.1" xmlns="http://www.w3.org/2000/svg" p-id="5815" xmlns:xlink="http://www.w3.org/1999/xlink" width="200" height="200"><path d="M512 512m-512 0a512 512 0 1 0 1024 0 512 512 0 1 0-1024 0Z" fill="#D8D7DF" p-id="5816"></path><path d="M293.013333 539.605333c0.96 19.818667 20.757333 10.666667 29.738667 4.458667 8.533333-5.888 11.008-0.981333 11.754667-12.586667a190.293333 190.293333 0 0 0 0.938666-22.933333 56.192 56.192 0 0 0-37.44 9.6c-5.44 3.968-15.616 16.554667-4.992 21.589333" fill="#F6D2A2" p-id="5817"></path><path d="M303.317333 553.557333a12.629333 12.629333 0 0 1-5.653333-1.216 12.992 12.992 0 0 1-6.485333-11.562666 8.597333 8.597333 0 0 1-4.8-6.805334 24.149333 24.149333 0 0 1 10.368-17.450666 57.6 57.6 0 0 1 38.72-9.898667l1.621333 0.149333v1.621334c0.213333 5.973333 0.021333 11.968-0.554667 17.92l-0.384 5.248c-0.533333 8.234667-2.069333 9.472-6.314666 10.944a23.36 23.36 0 0 0-6.250667 3.093333c-5.973333 4.352-12.949333 7.104-20.266667 7.957333z m26.645334-43.392a52.8 52.8 0 0 0-30.869334 9.472c-3.882667 2.816-9.28 9.450667-8.832 14.016a5.269333 5.269333 0 0 0 3.52 4.245334l1.045334 0.469333v1.130667c0.234667 4.949333 1.706667 8.106667 4.437333 9.450666 5.226667 2.602667 14.976-1.386667 22.336-6.442666 2.218667-1.536 4.650667-2.730667 7.210667-3.562667 2.773333-0.96 3.349333-1.173333 3.754666-7.637333 0-1.749333 0.256-3.498667 0.384-5.269334 0.490667-5.248 0.704-10.517333 0.64-15.786666a90.410667 90.410667 0 0 0-3.605333-0.085334h-0.021333z" fill="#000000" p-id="5818"></path><path d="M293.013333 539.605333a15.616 15.616 0 0 0 7.893334-4.458666l-7.893334 4.458666z" fill="#C6B198" p-id="5819"></path><path d="M293.013333 541.504a1.898667 1.898667 0 0 1-1.578666-2.816 1.92 1.92 0 0 1 0.938666-0.853333l1.28-0.426667a11.349333 11.349333 0 0 0 6.314667-3.925333 1.877333 1.877333 0 0 1 2.218667 0.021333 1.898667 1.898667 0 0 1 0.277333 2.816 14.762667 14.762667 0 0 1-7.552 4.629333l-1.216 0.426667a1.834667 1.834667 0 0 1-0.682667 0.128z" fill="#000000" p-id="5820"></path><path d="M338.773333 303.424c-75.904-21.333333-19.456-117.824 41.493334-78.165333l-41.472 78.165333z" fill="#6AD7E5" p-id="5821"></path><path d="M339.754667 305.6l-1.472-0.426667a46.229333 46.229333 0 0 1-37.482667-35.989333 50.261333 50.261333 0 0 1 23.445333-47.488 50.773333 50.773333 0 0 1 57.066667 1.941333l1.450667 0.938667-43.008 81.024z m10.773333-87.978667c-8.618667 0-17.024 2.496-24.234667 7.189334a46.378667 46.378667 0 0 0-21.76 43.754666 42.112 42.112 0 0 0 33.28 32.618667l39.978667-75.306667a52.096 52.096 0 0 0-27.264-8.213333V217.6z" fill="#000000" p-id="5822"></path><path d="M675.989333 218.005333c59.989333-42.197333 114.346667 53.013333 44.544 76.970667l-44.544-76.970667z" fill="#6AD7E5" p-id="5823"></path><path d="M719.68 297.237333l-46.186667-79.786666 1.408-0.981334a49.578667 49.578667 0 0 1 55.082667-4.650666 50.944 50.944 0 0 1 25.066667 47.168 45.141333 45.141333 0 0 1-33.92 37.76l-1.450667 0.490666z m-41.173333-78.677333l42.88 74.069333a41.088 41.088 0 0 0 29.909333-34.026666 47.082667 47.082667 0 0 0-23.210667-43.52 44.586667 44.586667 0 0 0-49.578666 3.456z" fill="#000000" p-id="5824"></path><path d="M688.917333 783.594667c15.274667 9.450667 43.2 37.994667 20.266667 51.84-21.973333 20.138667-34.304-22.101333-53.632-27.946667a53.397333 53.397333 0 0 1 33.365333-23.893333z" fill="#F6D2A2" p-id="5825"></path><path d="M697.6 842.752h-0.917333c-8.661333-0.533333-15.872-8.981333-22.826667-17.173333a48.981333 48.981333 0 0 0-18.837333-16.234667l-2.56-0.789333 1.6-2.133334c7.829333-12.458667 20.266667-21.333333 34.56-24.64h0.704l0.618666 0.362667c9.749333 6.037333 29.909333 23.701333 29.824 39.68a17.536 17.536 0 0 1-9.429333 15.274667 18.986667 18.986667 0 0 1-12.736 5.653333z m-39.018667-36.010667c7.125333 4.202667 13.290667 9.813333 18.133334 16.490667 6.762667 7.914667 13.141333 15.402667 20.202666 15.829333a15.04 15.04 0 0 0 10.965334-4.8l0.298666-0.213333a13.866667 13.866667 0 0 0 7.765334-12.138667c0-12.778667-16.128-28.8-27.456-36.010666a49.322667 49.322667 0 0 0-29.909334 20.714666v0.128z" fill="#000000" p-id="5826"></path><path d="M709.184 837.333333a1.898667 1.898667 0 0 1-1.685333-1.024 70.421333 70.421333 0 0 1-2.944-7.189333 31.402667 31.402667 0 0 0-6.869334-12.437333 1.898667 1.898667 0 0 1 1.322667-3.093334 1.898667 1.898667 0 0 1 1.28 0.384c3.648 3.946667 6.314667 8.682667 7.808 13.845334 0.810667 2.282667 1.749333 4.522667 2.773333 6.72a1.898667 1.898667 0 0 1-0.832 2.538666 1.877333 1.877333 0 0 1-0.853333 0.256z" fill="#000000" p-id="5827"></path><path d="M416.32 815.893333c-17.92 2.752-27.989333 18.922667-42.922667 27.136-14.08 8.405333-19.456-2.688-20.693333-4.949333-2.218667-1.002667-2.026667 0.938667-5.44-2.389333-13.12-20.693333 13.568-35.690667 27.434667-45.973334 19.306667-3.904 31.445333 12.842667 41.6 26.176z" fill="#F6D2A2" p-id="5828"></path><path d="M363.861333 848a12.864 12.864 0 0 1-3.392-0.426667 15.530667 15.530667 0 0 1-9.109333-7.936h-0.426667c-1.6 0-2.773333-0.32-5.12-2.709333l-0.256-0.298667c-12.565333-19.84 8.810667-34.88 22.954667-44.842666 1.792-1.258667 3.456-2.410667 4.970667-3.541334l0.341333-0.256h0.426667c19.882667-4.032 32.448 12.437333 42.538666 25.664l2.858667 3.712-3.157333 0.490667a54.314667 54.314667 0 0 0-26.517334 15.210667 96.426667 96.426667 0 0 1-15.765333 11.712 20.629333 20.629333 0 0 1-10.346667 3.2z m-12.650666-12.16a5.12 5.12 0 0 1 2.218666 0.512l0.554667 0.277333 0.469333 0.832a12.16 12.16 0 0 0 7.018667 6.464 14.4 14.4 0 0 0 10.944-2.410666c5.418667-3.242667 10.517333-7.04 15.189333-11.306667 7.082667-7.082667 15.786667-12.373333 25.344-15.445333-9.6-12.629333-20.693333-26.261333-37.504-23.125334a130.837333 130.837333 0 0 1-4.778666 3.349334c-14.4 10.176-32.448 22.826667-22.058667 39.552 1.493333 1.493333 1.834667 1.450667 2.133333 1.450666l0.469334-0.128z" fill="#000000" p-id="5829"></path><path d="M352.661333 839.957333h-0.170666a1.898667 1.898667 0 0 1-1.706667-2.048 28.8 28.8 0 0 1 6.058667-13.717333c1.493333-2.090667 2.837333-4.309333 3.946666-6.613333a1.898667 1.898667 0 0 1 3.456 1.514666 47.594667 47.594667 0 0 1-4.266666 7.210667c-2.816 3.456-4.693333 7.594667-5.418667 11.989333a1.877333 1.877333 0 0 1-1.898667 1.664z" fill="#000000" p-id="5830"></path><path d="M341.973333 276.8c-10.026667-5.312-17.365333-12.48-11.242666-24 5.653333-10.730667 16.213333-9.6 26.197333-4.266667l-14.976 28.266667zM704.704 266.666667c10.026667-5.290667 17.365333-12.48 11.242667-24-5.674667-10.709333-16.213333-9.6-26.218667-4.266667l14.976 28.266667z" fill="#000000" p-id="5831"></path><path d="M773.653333 537.109333c-0.96 19.84-20.778667 10.666667-29.738666 4.48-8.533333-5.909333-11.029333-1.002667-11.776-12.608a190.293333 190.293333 0 0 1-0.917334-22.933333 56.192 56.192 0 0 1 37.44 9.6c5.44 3.968 15.616 16.554667 4.992 21.610667" fill="#F6D2A2" p-id="5832"></path><path d="M763.349333 551.04a42.944 42.944 0 0 1-20.48-7.936 23.402667 23.402667 0 0 0-6.272-3.093333c-4.266667-1.493333-5.781333-2.730667-6.314666-10.944 0-1.749333-0.234667-3.477333-0.384-5.226667a136.32 136.32 0 0 1-0.554667-17.92v-1.642667l1.621333-0.149333a57.6 57.6 0 0 1 38.72 9.92 24.170667 24.170667 0 0 1 10.368 17.450667 8.554667 8.554667 0 0 1-4.8 6.784 12.970667 12.970667 0 0 1-6.485333 11.562666 12.650667 12.650667 0 0 1-5.418667 1.216z m-30.293333-43.178667c-0.085333 5.269333 0.106667 10.538667 0.618667 15.786667l0.362666 5.269333c0.426667 6.464 1.002667 6.656 3.776 7.637334 2.56 0.810667 4.992 2.026667 7.210667 3.562666 7.338667 5.077333 17.109333 9.045333 22.336 6.442667 2.709333-1.344 4.202667-4.501333 4.437333-9.450667v-1.130666l1.045334-0.469334a5.269333 5.269333 0 0 0 3.52-4.266666c0.426667-4.544-4.949333-11.178667-8.832-14.016a53.568 53.568 0 0 0-34.496-9.450667v0.085333z" fill="#000000" p-id="5833"></path><path d="M773.653333 537.109333a15.616 15.616 0 0 1-7.893333-4.437333l7.893333 4.437333z" fill="#C6B198" p-id="5834"></path><path d="M773.653333 538.986667a1.834667 1.834667 0 0 1-0.64 0l-1.237333-0.426667a14.741333 14.741333 0 0 1-7.530667-4.650667 1.92 1.92 0 0 1 0.256-2.773333 1.92 1.92 0 0 1 2.773334 0.533333 11.349333 11.349333 0 0 0 5.76 3.328l1.28 0.448a1.898667 1.898667 0 0 1-0.64 3.648l-0.021334-0.106666z" fill="#000000" p-id="5835"></path><path d="M525.717333 177.898667c75.989333 0 147.221333 10.88 184.362667 83.882666 33.322667 81.813333 21.461333 170.048 26.56 256.533334 4.373333 74.24 14.037333 160.021333-20.394667 228.864-36.266667 72.384-126.805333 90.602667-201.408 87.936-58.624-2.090667-129.386667-21.226667-162.474666-74.773334-38.805333-62.805333-20.416-156.202667-17.6-226.090666 3.328-82.773333-22.421333-165.845333 4.8-246.826667 28.224-84.010667 104.298667-103.04 186.197333-109.525333" fill="#6AD7E5" p-id="5836"></path><path d="M527.808 837.205333c-4.8 0-9.109333 0-13.013333-0.234666-36.010667-1.301333-124.224-11.264-164.010667-75.648-31.36-50.794667-25.770667-121.002667-20.842667-182.933334 1.237333-15.573333 2.389333-30.314667 2.986667-44.245333a712.021333 712.021333 0 0 0-3.776-87.978667 389.12 389.12 0 0 1 8.64-159.381333 139.456 139.456 0 0 1 73.92-84.928 310.741333 310.741333 0 0 1 113.877333-25.856h0.128c74.197333 0 148.096 10.304 186.026667 84.906667v0.149333a492.416 492.416 0 0 1 25.066667 186.282667c0.128 23.253333 0.256 47.338667 1.621333 70.848 0.426667 7.210667 0.896 14.4 1.386667 21.610666 4.394667 68.181333 9.386667 145.493333-21.973334 208.149334-39.082667 78.250667-137.792 89.258667-190.037333 89.258666z m-2.005333-657.429333c-79.061333 6.250667-156.010667 23.701333-184.490667 108.202667a386.389333 386.389333 0 0 0-8.469333 157.866666c3.050667 29.397333 4.288 58.944 3.690666 88.469334a1168 1168 0 0 1-2.986666 44.416c-4.778667 61.354667-10.410667 130.901333 20.309333 180.629333 38.826667 62.869333 125.482667 72.618667 160.938667 73.856 46.122667 1.664 157.866667-3.52 199.616-86.912 30.933333-61.738667 25.941333-138.496 21.610666-206.208l-1.365333-21.589333c-1.408-23.616-1.514667-47.744-1.642667-71.04a489.813333 489.813333 0 0 0-24.746666-184.810667c-36.928-72.832-109.525333-82.858667-182.464-82.88z" fill="#000000" p-id="5837"></path><path d="M539.136 279.893333c13.653333 79.210667 143.296 58.346667 124.672-21.589333-16.810667-71.722667-129.194667-51.861333-124.672 21.589333z" fill="#FFFFFF" p-id="5838"></path><path d="M600.746667 331.648a72.597333 72.597333 0 0 1-23.722667-3.882667 58.645333 58.645333 0 0 1-39.68-47.573333v-0.213333a64.128 64.128 0 0 1 57.984-67.52 59.562667 59.562667 0 0 1 70.250667 45.376 55.488 55.488 0 0 1-16.149334 56.234666 73.728 73.728 0 0 1-48.704 17.578667z m-59.776-51.968a55.189333 55.189333 0 0 0 37.248 44.650667 71.68 71.68 0 0 0 68.757333-12.970667 51.989333 51.989333 0 0 0 15.04-52.8 56.021333 56.021333 0 0 0-66.282667-42.474667 60.586667 60.586667 0 0 0-54.762666 63.594667z" fill="#000000" p-id="5839"></path><path d="M384.256 292.714667c17.664 69.056 128.213333 51.285333 124.032-17.877334-4.992-82.944-140.970667-66.944-124.074667 17.877334" fill="#FFFFFF" p-id="5840"></path><path d="M443.221333 338.261333a67.84 67.84 0 0 1-32.298666-7.829333 57.194667 57.194667 0 0 1-28.416-37.269333 57.856 57.856 0 0 1 19.84-59.328 74.581333 74.581333 0 0 1 74.090666-9.450667 56.064 56.064 0 0 1 33.6 50.389333 60.714667 60.714667 0 0 1-54.976 62.613334c-3.904 0.597333-7.893333 0.896-11.84 0.853333z m-57.237333-45.930666a57.6 57.6 0 0 0 68.586667 41.493333 57.237333 57.237333 0 0 0 51.946666-58.901333 52.650667 52.650667 0 0 0-31.530666-47.424 70.890667 70.890667 0 0 0-70.442667 8.96 54.421333 54.421333 0 0 0-18.56 55.872z" fill="#000000" p-id="5841"></path><path d="M554.794667 375.04c1.130667 10.922667 1.28 21.930667 0.384 32.853333-2.645333 4.992-7.808 5.504-12.245334 7.530667a18.005333 18.005333 0 0 1-13.802666-10.773333 233.152 233.152 0 0 1 0.981333-37.184l24.682667 7.594666z" fill="#FFFFFF" p-id="5842"></path><path d="M543.189333 417.365333h-0.554666a19.861333 19.861333 0 0 1-15.232-12.010666v-0.490667a124.8 124.8 0 0 1 0.213333-25.514667c0.32-3.904 0.64-7.936 0.746667-12.010666v-2.389334l28.352 8.682667v1.386667c0 3.413333 0.277333 6.954667 0.576 10.666666 0.874667 7.488 0.810667 15.061333-0.213334 22.528v0.298667l-0.128 0.256a15.786667 15.786667 0 0 1-9.941333 7.210667c-1.130667 0.405333-2.176 0.768-3.2 1.237333l-0.618667 0.149333z m-12.202666-13.226666a16.106667 16.106667 0 0 0 11.712 9.322666c0.981333-0.426667 1.984-0.768 2.944-1.130666a12.586667 12.586667 0 0 0 7.722666-5.077334c0.853333-7.061333 0.853333-14.208 0-21.290666-0.213333-3.285333-0.469333-6.421333-0.554666-9.6l-20.992-6.421334c-0.170667 3.264-0.405333 6.506667-0.64 9.6-0.917333 8.170667-1.002667 16.426667-0.256 24.597334h0.064zM414.72 301.653333c10.325333 0 18.666667-9.045333 18.666667-20.202666 0-11.157333-8.341333-20.202667-18.666667-20.202667-10.304 0-18.666667 9.045333-18.666667 20.202667 0 11.178667 8.362667 20.224 18.666667 20.224z" fill="#000000" p-id="5843"></path><path d="M423.232 291.157333c2.410667 0 4.394667-2.304 4.394667-5.12 0-2.858667-1.984-5.162667-4.394667-5.162666-2.432 0-4.394667 2.304-4.394667 5.141333s1.962667 5.141333 4.394667 5.141333z" fill="#FFFFFF" p-id="5844"></path><path d="M571.093333 296.618667c10.154667 0 18.368-9.045333 18.368-20.202667 0-11.157333-8.213333-20.202667-18.346666-20.202667-10.154667 0-18.346667 9.045333-18.346667 20.202667 0 11.157333 8.192 20.202667 18.346667 20.202667z" fill="#000000" p-id="5845"></path><path d="M579.477333 286.122667c2.368 0 4.309333-2.304 4.309334-5.141334s-1.92-5.12-4.309334-5.12c-2.389333 0-4.330667 2.282667-4.330666 5.12s1.92 5.12 4.330666 5.12z" fill="#FFFFFF" p-id="5846"></path><path d="M501.44 373.930667c-8.128 19.712 4.544 59.2 26.645333 30.08a233.386667 233.386667 0 0 1 0.981334-37.162667l-27.626667 7.082667z" fill="#FFFFFF" p-id="5847"></path><path d="M513.322667 416.298667a10.837333 10.837333 0 0 1-5.418667-1.493334 38.421333 38.421333 0 0 1-8.192-41.578666l0.362667-0.853334 30.869333-7.978666v2.410666c-0.128 4.053333-0.469333 8.149333-0.768 11.989334a120.042667 120.042667 0 0 0-0.256 24.746666v0.768l-0.448 0.64c-6.357333 8.64-11.861333 11.349333-16.149333 11.349334z m-10.453334-40.789334a34.986667 34.986667 0 0 0 6.890667 35.989334c5.717333 3.264 12.010667-2.389333 16.362667-8.021334a128.384 128.384 0 0 1 0.298666-24.746666c0.234667-3.093333 0.490667-6.272 0.64-9.408l-24.213333 6.186666z" fill="#000000" p-id="5848"></path><path d="M504.213333 335.914667a23.978667 23.978667 0 0 0-19.690666 33.6c10.453333 18.922667 33.770667-1.685333 48.298666 0.256 16.810667 0.341333 30.442667 17.706667 43.861334 3.157333 14.933333-16.170667-6.442667-31.957333-23.146667-38.976l-49.322667 1.962667z" fill="#F6D2A2" p-id="5849"></path><path d="M564.714667 380.629333a41.472 41.472 0 0 1-15.36-4.309333 46.293333 46.293333 0 0 0-16.554667-4.650667h-0.213333a42.026667 42.026667 0 0 0-17.088 3.648c-11.797333 4.074667-25.173333 8.682667-32.64-4.8a22.741333 22.741333 0 0 1 0.341333-21.994666 26.816 26.816 0 0 1 20.842667-14.4l49.856-2.133334 0.384 0.170667c12.416 5.248 26.538667 14.826667 28.970666 26.005333a20.053333 20.053333 0 0 1-18.538666 22.4v0.064z m-31.744-12.629333c6.186667 0.512 12.245333 2.176 17.834666 4.949333 9.429333 3.946667 16.789333 7.082667 24.490667-1.194666a13.888 13.888 0 0 0 4.266667-12.693334c-2.069333-9.6-15.402667-18.453333-26.389334-23.125333l-48.853333 1.941333a23.36 23.36 0 0 0-17.813333 12.416 19.008 19.008 0 0 0-0.362667 18.410667c5.952 10.773333 16.810667 7.04 28.074667 3.114667 5.909333-2.624 12.288-3.925333 18.752-3.818667z" fill="#231F20" p-id="5850"></path><path d="M502.314667 335.125333c-1.130667-26.282667 49.002667-29.525333 55.018666-7.573333 5.994667 21.973333-52.48 27.093333-54.933333 7.594667l-0.085333-0.021334z" fill="#000000" p-id="5851"></path></svg>