<?xml version="1.0" standalone="no"?><!DOCTYPE svg PUBLIC "-//W3C//DTD SVG 1.1//EN" "http://www.w3.org/Graphics/SVG/1.1/DTD/svg11.dtd"><svg t="1679453933169" class="icon" viewBox="0 0 1369 1024" version="1.1" xmlns="http://www.w3.org/2000/svg" p-id="10180" xmlns:xlink="http://www.w3.org/1999/xlink" width="267.3828125" height="200"><path d="M3.475605 1017.048791a38.23165 38.23165 0 0 0-0.868902 6.951209h0.868902l1.303351-6.516759zM7.38566 997.932966l-1.303352 5.213407h0.868901a21.722529 21.722529 0 0 0 0.868901-5.213407zM52.134069 976.644888l-2.606704 6.951209h1.303352l1.303352-6.951209zM748.123886 24.763683h7.38566v82.371828h-7.38566zM732.049215 24.763683h7.38566v82.371828h-7.38566zM732.049215 154.229953h7.38566v82.371829h-7.38566zM715.974544 24.763683h7.38566v82.371828h-7.38566zM715.974544 154.229953h7.38566v82.371829h-7.38566zM683.825202 154.229953h7.385659v82.371829h-7.385659zM699.899873 154.229953h7.385659v82.371829h-7.385659zM807.209164 276.745015h7.38566v82.371828h-7.38566zM823.283835 276.745015h7.38566v82.371828h-7.38566zM748.123886 154.229953h7.38566v82.371829h-7.38566zM839.358507 276.745015h7.385659v82.371828h-7.385659zM683.825202 24.763683h7.385659v82.371828h-7.385659zM855.433178 276.745015h7.38566v82.371828h-7.38566zM699.899873 24.763683h7.385659v82.371828h-7.385659zM871.507849 276.745015h7.38566v82.371828h-7.38566zM511.348324 163.353415l-3.041154-1.737802-3.910055-1.303352-3.910055 0.868901-3.041154 2.172253-2.606704 3.475605-0.43445 3.475605 0.43445 3.910055 2.172253 3.475604 3.475605 2.172253 3.910055 0.868901 3.910055-0.868901 3.041154-2.172253 2.172253-3.041154 0.868901-3.910055-0.868901-3.910055-2.172253-3.475605zM314.107764 276.745015H321.493424v82.371828h-7.38566zM330.182435 276.745015h7.38566v82.371828H330.182435zM559.572338 351.036063l3.041154 2.606703 3.910055 0.434451 3.910055-0.434451 3.475605-2.172253 2.172252-3.475604 0.868902-3.910055-0.868902-3.475605-2.172252-3.475605-3.041154-2.172252-3.910056-0.868902-3.910055 0.868902-3.475604 2.172252-2.172253 3.041154-0.868901 3.910056 0.868901 3.910055 2.172253 3.041154zM378.406449 276.745015h7.38566v82.371828h-7.38566z" fill="#394D54" p-id="10181"></path><path d="M198.109461 570.433602l10.861264 22.156979 1.303352 2.172253c75.5944 129.03182 208.536275 182.903691 353.642766 182.903691 244.161222 0 450.525244-94.710225 570.433602-293.688587h231.562156c-29.97709-7.38566-94.275774-17.812473-83.41451-56.478574-31.714892 36.493848-89.496818 45.18286-138.589733 39.969452a715.105643 715.105643 0 0 0 38.23165-79.938905c71.249894 3.475605 143.80314-17.378023 178.559186-85.152312l9.123462-17.378023-16.943572-9.557913c-41.272804-23.894782-96.013577-27.370386-142.499788-13.467968-5.647857-49.527365-38.23165-92.972423-76.897752-124.252863l-15.20577-12.164616-13.033517 14.771319c-26.067034 29.97709-33.887145 79.938905-30.41154 118.170556a157.271107 157.271107 0 0 0 28.673738 79.504455 235.47221 235.47221 0 0 1-41.272805 18.681374 271.531608 271.531608 0 0 1-85.152312 14.336869h-62.126432V245.464574h-122.949512V0h-147.278744v122.949512H399.260076v122.515062H276.310564v125.556215H171.173526l-1.303352 18.681375a357.987272 357.987272 0 0 0 0.434451 77.766652c-33.887145-3.910055-66.036487-16.074671-86.890115-39.969452 10.426814 39.100552-53.871871 49.092915-83.41451 56.478574h172.476877a340.609249 340.609249 0 0 0 25.632584 86.455664z m366.241833 187.248197a496.142554 496.142554 0 0 1-97.316928-9.557913A363.200679 363.200679 0 0 1 325.403479 690.776411l-21.288078-15.640221a474.420025 474.420025 0 0 1-40.838354-36.928299c19.115825 1.303352 37.7972 1.737802 56.913025 1.737803s30.845991-0.434451 45.18286-1.303352h4.344505l23.460331-2.172253c12.164616-0.868901 23.460331-2.606703 34.321596-4.344506l6.082308-1.303351 28.673737-6.95121 13.902419-4.344505a9.123462 9.123462 0 0 0 6.082308-9.992363c0-0.868901 0-1.303352-0.434451-1.737803a6.951209 6.951209 0 0 0-1.737802-3.041154 9.557913 9.557913 0 0 0-9.992363-2.606703c-33.018244 11.730165-76.897751 17.812473-130.335172 19.115825-29.97709 0.434451-59.954179-0.434451-89.496818-2.172253h-0.434451a282.827323 282.827323 0 0 1-18.681374-27.804836l-8.689012-16.509122a302.377599 302.377599 0 0 1-29.542639-90.365719h917.994061c-118.605006 187.682647-317.583369 273.26941-546.538821 273.26941z m231.562155-489.625796h94.275775v99.923632h-94.275775z m-122.949512-251.981332h93.841324v99.923632h-93.841324z m0 129.466271h93.841324v99.923632h-93.841324z m0 122.080611h93.841324v99.923632h-93.841324z m-76.897751-23.025881l1.303352-3.041154 0.868901-3.475604 0.868901-3.041154v-33.452694h25.632584l3.041154 1.303351 3.475604 1.737803 3.475605 2.606703 3.475604 3.041154 3.475605 4.778957 3.041154 5.213406 2.606703 7.38566 1.737803 8.254561 1.303351 9.992363v23.025881l-1.737802 9.992363-2.172253 8.254561-3.041154 6.516758-3.910055 5.647858-3.475604 4.344505-4.344506 3.041154-3.910055 2.172253-3.910056 1.737803-3.475604 0.868901h-85.586763v7.82011H590.852779V351.904964l-1.303352 3.041154-1.737802 2.606703-2.172253 2.606704-3.041154 2.172253-3.910055 1.737802-4.344506 1.737802-4.778956 1.303352-5.647858 1.303352-6.082308 0.868901-6.516758 0.868901h-27.804837l-9.992363-1.303352-8.689011-2.172253-7.38566-2.172252-5.647858-3.041154-4.344505-3.041154-3.041154-3.475605-2.172253-3.041154-1.737803-3.041154-0.868901-3.041154V284.130675l1.303352-5.213407 2.172253-4.344506 2.606703-3.475605 2.606704-3.041154 3.475604-2.172252 3.475605-2.172253 3.041154-1.303352 3.475605-0.868901H573.474756l5.647857-1.303352 5.213407-1.737802 3.910056-2.606704 3.041154-3.041154 2.606703-3.475604z m-175.952482 0l1.737802-9.992363 2.172253-8.254561 3.475605-6.516758 3.475604-5.647858 3.475605-3.910055 4.344505-3.041154 3.910056-2.606703 3.910055-1.303352 3.475604-0.868901h86.021214v-7.82011h-56.044124v-29.97709l0.868901-3.041154 0.868901-3.041154 1.737802-2.606703 2.172253-2.606704 3.041154-2.172253 3.910056-1.737802 4.344505-1.737802 4.778957-1.303352 5.647857-1.303352 6.082308-0.868901h33.887145l10.426813 1.303352 8.689012 2.172253 6.951209 2.172253 5.647857 3.041154 4.344506 3.041154 3.041154 3.475604 2.606704 3.041154 1.303351 3.041154 0.868902 3.041154v62.126432l-1.303352 5.213407-2.172253 4.344506-2.172253 3.475604-3.041154 3.041154-3.475605 2.172253-3.041154 2.172253-3.475604 1.303352-3.041154 0.868901h-71.684345l-5.647857 1.303352-4.778956 1.737802-4.344506 2.606703-3.041154 3.041154-2.606704 3.475605-1.737802 3.475605-1.303352 3.475604-1.303351 3.475605v36.493848h-26.501485l-3.041154-1.303352-3.041154-1.737802-3.475605-2.606704-3.475604-3.475604-3.475605-4.344506-4.344506-5.213407-2.606703-6.951209-1.737802-8.254561-1.303352-10.426814v-23.460331z m-117.301655 23.460331h94.275775v99.923632H302.812049z m-112.957149 123.383963h787.224438c64.298685 0 127.728468-23.894782 157.271107-50.830717-53.43742-43.445057-48.224014-146.844294-13.902418-186.813746 29.542639 23.894782 77.766653 74.291048 69.077641 138.155282h0.434451l3.041154-1.303352 1.737802-1.303352c37.7972-17.378023 99.489181-24.329232 147.278744 3.475605-31.280441 62.126432-101.226983 80.373356-173.780229 72.987696a658.627068 658.627068 0 0 1-46.051761 98.62028c-25.632584-5.213407-46.486211-13.902418-57.347475-23.894781-7.38566 10.426814-21.722529 18.246924-40.838354 23.460331-73.856597 20.419177-212.01188 0.868901-223.742045-32.149343-46.051761 53.871871-188.551549 53.871871-234.603309 0-14.771319 41.707255-228.521001 61.691981-265.01485 8.689012-10.861264 9.992363-32.583793 19.115825-59.085278 23.894781a240.685617 240.685617 0 0 1-50.830717 4.344506 352.773865 352.773865 0 0 1-0.868901-77.332202z" fill="#394D54" p-id="10182"></path><path d="M346.257106 276.745015h7.38566v82.371828h-7.38566zM362.331778 276.745015h7.385659v82.371828h-7.385659zM748.123886 276.310564h7.38566v82.371829h-7.38566zM699.899873 276.310564h7.385659v82.371829h-7.385659zM683.825202 276.310564h7.385659v82.371829h-7.385659zM715.974544 276.310564h7.38566v82.371829h-7.38566zM732.049215 276.310564h7.38566v82.371829h-7.38566zM1120.013577 948.4056h0.868901a21.288078 21.288078 0 0 1-0.434451-5.213407 21.288078 21.288078 0 0 1-0.43445 5.213407z" fill="#394D54" p-id="10183"></path><path d="M1189.960119 291.950785l3.041154-1.303352zM222.438693 574.778108a317.148918 317.148918 0 0 1-29.108188-90.80017h-0.434451a302.377599 302.377599 0 0 0 29.542639 90.365719l8.689012 16.509122a282.827323 282.827323 0 0 0 18.681374 27.804837 306.722104 306.722104 0 0 1-18.246924-27.804837zM481.371235 606.058549l-1.303352-1.303352a6.951209 6.951209 0 0 1 1.737802 3.041154c0.434451 0.434451 0.434451 0.868901 0.434451 1.737803a3.910055 3.910055 0 0 0-0.434451-2.172253zM241.554518 464.427662a328.444633 328.444633 0 0 1-5.213406-72.987696H189.8549a352.773865 352.773865 0 0 0 0.868901 77.332202 240.685617 240.685617 0 0 0 50.830717-4.344506zM1024 463.993212c19.115825-5.213407 33.452694-13.033517 40.838354-23.460331 10.861264 9.992363 31.714892 18.681375 57.347475 23.894781a658.627068 658.627068 0 0 0 46.051761-98.185829c72.553246 7.38566 142.499788-10.861264 173.780229-72.987696-47.789563-27.804837-109.481544-20.853627-147.278744-3.475605a1095.249894 1095.249894 0 0 1-170.739075 174.21468z" fill="#00AADA" p-id="10184"></path><path d="M368.848536 638.207891zM462.255409 624.305473h0.434451l13.902418-4.344506a9.557913 9.557913 0 0 0 6.082308-8.689011 10.861264 10.861264 0 0 0-0.43445-3.475605 3.475605 3.475605 0 0 0-0.868901-1.737802v1.303352a3.910055 3.910055 0 0 1 0.43445 2.172253 9.123462 9.123462 0 0 1-6.082308 9.992363l-13.902418 4.344505-28.673738 6.95121c9.992363-1.737802 19.984726-4.344506 28.673738-6.516759zM241.554518 464.427662c26.501485-4.778956 48.224014-13.902418 59.085278-23.894781 36.493848 53.00297 250.24353 33.018244 265.01485-8.689012 46.051761 53.871871 188.551549 53.871871 234.603309 0 11.730165 33.018244 149.885448 52.568519 223.742045 32.149343A1095.249894 1095.249894 0 0 0 1194.739075 289.778532l-1.737802 1.303352-3.041154 1.303351h-0.434451c8.689011-63.864234-39.535002-114.260501-69.077641-138.155282-34.321595 39.969453-39.535002 143.368689 13.902418 186.813747-29.542639 26.935936-92.972423 50.830717-157.271107 50.830717H236.341112a328.444633 328.444633 0 0 0 5.213406 72.553245z" fill="#24B8EB" p-id="10185"></path><path d="M325.403479 690.776411l-21.288078-15.640221zM999.670768 483.977938a996.195163 996.195163 0 0 1-249.809079 142.934238c-96.448027 36.928299-184.641493 50.830717-260.235893 44.748409 23.894782 32.149342 58.216377 61.691981 107.743742 85.152313h-33.887145a500.052609 500.052609 0 0 1-96.448027-8.689012 496.142554 496.142554 0 0 0 97.316928 9.557913c228.955452 0 427.933814-85.586763 546.538821-273.703861zM481.371235 606.058549a3.475605 3.475605 0 0 1 0.868901 1.737802 10.861264 10.861264 0 0 1 0.43445 3.475605 10.861264 10.861264 0 0 0-0.43445-3.475605 9.123462 9.123462 0 0 0-12.164616-5.647857c-33.018244 11.295715-76.897751 17.812473-130.335172 18.681374a234.603309 234.603309 0 0 1-93.841324-136.85193H193.330505a317.148918 317.148918 0 0 0 29.108188 90.80017l9.123462 16.074671a306.722104 306.722104 0 0 0 18.246924 27.804837h0.434451c29.542639 1.737802 59.519728 2.606703 89.496818 2.172252 53.43742-1.303352 97.316928-7.38566 130.335172-19.115825a9.557913 9.557913 0 0 1 9.992363 2.606704z" fill="#0DB0D6" p-id="10186"></path><path d="M339.740348 620.829868c53.43742-0.868901 97.316928-7.38566 130.335172-18.681374a9.123462 9.123462 0 0 1 12.164616 5.647857 10.861264 10.861264 0 0 1 0.43445 3.475605 9.557913 9.557913 0 0 1-6.082308 8.689011l-13.902418 4.344506h-0.434451a254.153585 254.153585 0 0 0 27.370387 46.920662c75.5944 6.082308 163.787866-7.82011 260.235893-44.748409a996.195163 996.195163 0 0 0 249.809079-142.934239H245.899024a234.603309 234.603309 0 0 0 93.841324 137.286381z m179.428086-75.594399a29.108188 29.108188 0 0 1 29.542639 29.108188 29.542639 29.542639 0 1 1-58.650827 0 29.108188 29.108188 0 0 1 29.108188-29.108188z" fill="#20C0E5" p-id="10187"></path><path d="M519.168434 603.886296a29.542639 29.542639 0 0 0 29.542639-29.542639 29.542639 29.542639 0 1 0-29.542639 29.542639z m0-50.396266a24.763683 24.763683 0 0 1 7.820111 1.303351 9.123462 9.123462 0 0 0-4.344506 9.557913 9.123462 9.123462 0 0 0 8.689011 6.516759 7.82011 7.82011 0 0 0 7.38566-4.778957 28.239287 28.239287 0 0 1 1.737803 8.254561 21.288078 21.288078 0 1 1-21.288079-20.853627z" fill="#D4EDF1" p-id="10188"></path><path d="M519.168434 595.197285a20.853627 20.853627 0 0 0 21.288079-20.853628 28.239287 28.239287 0 0 0-1.737803-8.254561 7.82011 7.82011 0 0 1-7.38566 4.778957 9.123462 9.123462 0 0 1-8.689011-6.516759 9.123462 9.123462 0 0 1 4.344506-9.557913 24.763683 24.763683 0 0 0-7.820111-1.303351 20.853627 20.853627 0 0 0 0 41.707255z" fill="#394D54" p-id="10189"></path><path d="M393.177768 636.470089c12.164616-0.868901 23.460331-2.606703 34.321596-4.344506-10.861264 1.737802-22.156979 3.475605-34.321596 4.344506zM563.482393 756.812898h33.887145c-49.527365-23.460331-83.848961-53.00297-107.743742-85.152313h-0.434451c-60.82308-5.647857-98.185829-18.246924-123.818413-32.583792-14.336869 0.868901-29.108188 1.303352-45.18286 1.303351s-37.7972-0.434451-56.913025-1.737802a474.420025 474.420025 0 0 0 40.838354 36.928299l21.288078 15.64022a363.200679 363.200679 0 0 0 141.630887 57.347476 500.052609 500.052609 0 0 0 96.448027 8.254561z" fill="#BFDBE0" p-id="10190"></path><path d="M489.191345 671.226135h0.434451a254.153585 254.153585 0 0 1-27.370387-46.920662c-8.689011 2.172253-18.681375 4.778956-28.673737 6.516759l-6.082308 1.303351c-10.861264 1.737802-22.156979 3.475605-34.321596 4.344506l-23.460331 2.172253h-4.344505c25.632584 14.336869 62.995333 26.935936 123.818413 32.583793z" fill="#D4EDF1" p-id="10191"></path><path d="M397.087824 268.056003H302.812049v99.923632h94.275775zM321.493424 359.290624h-7.38566v-82.545609H321.493424z m16.074671 0H330.182435v-82.545609h7.38566z m16.074671 0h-7.38566v-82.545609h7.38566z m16.074671 0h-7.385659v-82.545609h7.385659z m16.074672 0h-7.38566v-82.545609h7.38566zM766.805261 16.074671h-93.841324v99.923632h93.841324z m-75.5944 91.23462h-7.385659v-82.545608h7.385659z m16.074671 0h-7.385659v-82.545608h7.385659z m16.074672 0h-7.38566v-82.545608h7.38566z m16.509121 0h-7.82011v-82.545608h7.82011z m16.074672 0h-7.820111v-82.545608h7.820111zM766.805261 145.540942h-93.841324v99.923632h93.841324z m-75.5944 91.23462h-7.385659v-82.545609h7.385659z m16.074671 0h-7.385659v-82.545609h7.385659z m16.074672 0h-7.38566v-82.545609h7.38566z m16.509121 0h-7.82011v-82.545609h7.82011z m16.074672 0h-7.820111v-82.545609h7.820111zM766.805261 267.621553h-93.841324v99.923632h93.841324z m-75.5944 91.23462h-7.385659v-82.545609h7.385659z m16.074671 0h-7.385659v-82.545609h7.385659z m16.074672 0h-7.38566v-82.545609h7.38566z m16.509121 0h-7.82011v-82.545609h7.82011z m16.074672 0h-7.820111v-82.545609h7.820111zM890.189224 268.056003h-94.275775v99.923632h94.275775z m-75.5944 91.234621h-7.38566v-82.545609h7.38566z m16.074671 0h-7.38566v-82.545609h7.38566z m16.074671 0h-7.385659v-82.545609h7.385659z m16.074672 0h-7.38566v-82.545609h7.38566z m16.074671 0h-7.38566v-82.545609h7.38566zM421.417056 278.482817l1.737802 8.254561 2.606703 6.951209 3.041154 5.647858 3.475605 4.344505 3.475604 3.475605 3.475605 2.606703 3.041154 1.737803 3.041154 1.303351h26.501485v-35.624947l1.303352-3.475604 1.303351-3.475605 1.737803-3.475604 2.606703-3.475605 3.041154-3.041154 4.344506-2.606703 4.778956-1.737803 5.647858-1.303351H569.13025l3.041154-0.868902 3.475605-1.303351 3.041154-2.172253 3.475605-2.172253 3.041154-3.041154 2.172252-3.475605 2.172253-4.344505 1.303352-5.213407V168.132372l-0.868901-3.041154-1.303352-3.041154-2.606703-3.041154-3.041154-3.475605-4.344506-3.041154-5.647858-3.041154-6.951209-2.172253-8.689011-2.172253-10.426814-1.303351H512.651676l-6.082308 0.868901-5.647858 1.303351-4.778956 1.303352-4.344506 1.737802-3.910055 1.737803-3.041154 2.172253-2.172253 2.606703-1.737802 2.606703-0.868901 3.041154-0.868901 3.041155v29.542638h56.044124v7.820111h-85.152313l-3.475604 0.868901-3.910055 1.303352-3.910056 2.606703-4.344505 3.041154-3.475605 3.910055-3.475604 5.647858-3.475605 6.516758-2.172253 8.254561-1.737802 9.992363v23.460331z m92.103521-103.833687l-2.172253 3.041154-3.041154 2.172253-3.910055 0.868901-3.910055-0.868901-3.475605-2.172253-2.172253-3.041154v-7.82011l2.172253-3.475605 3.475605-1.737802 3.910055-0.868901 3.910055 0.868901 3.041154 2.172253 2.172253 3.041154 0.868901 3.910055z" fill="#00ACD3" p-id="10192"></path><path d="M588.246076 254.588036l-3.910056 2.606703-5.213407 1.737802-5.647857 1.303352h-71.249894l-3.475604 0.868901-3.041154 1.303352-3.475605 2.172253-3.475605 2.172253-2.606703 3.041154-2.606704 3.475604-2.172252 4.344506-1.303352 5.213407v63.864234l0.868901 3.041154 1.737802 3.041154 2.172253 3.041154 3.041154 3.475605 4.344506 3.041154 5.647857 3.041154 7.38566 2.172253 8.689012 2.172252 9.992363 1.303352h27.804836l6.516759-0.868901 6.082308-0.868901 5.647857-1.303352 4.778957-1.303352 4.344505-1.737802 3.910056-1.737802 3.041154-2.172253 2.172253-2.606703 1.737802-2.606704 1.303352-3.041154v-32.149342h-56.478575v-8.254561h86.021213l3.475605-0.868901 3.910055-1.737803 3.910055-2.172252 4.344506-3.041154 3.475605-4.344506 3.910055-5.647858 3.041154-6.516758 2.172253-8.254561 1.737802-9.992363v-23.025881l-1.303352-9.992363-1.737802-8.254561-2.606703-7.385659-3.041154-5.213407-3.475605-4.778957-3.475605-3.041154-3.475604-2.606703-3.475605-1.737802-3.041154-1.303352H599.54179v33.452694l-0.868901 3.041154-0.868901 3.475605-1.303352 3.041154-2.172252 3.475604-2.606704 3.475605z m-30.845991 85.586762l2.172253-3.041154 3.475604-2.172252 3.910055-0.868902 3.910056 0.868902 3.041154 2.172252 2.172252 3.475605 0.868902 3.910055-0.868902 3.475605-2.172252 3.475604-3.475605 2.172253-3.910055 0.868901-3.910055-0.868901-3.041154-2.172253-2.172253-3.475604-0.868901-3.910055z" fill="#FFD400" p-id="10193"></path></svg>